# xmcd
#
# Track frame offsets:
# 150
# 11666
# 24113
# 32487
# 42062
# 47084
# 57715
# 71643
# 84999
# 93094
# 100392
# 107070
# 114324
#
# Disc length: 1648 seconds
#
# Revision: 0
# Processed by: cddbd v1.5.2PL0 Copyright (c) Steve Scherf et al.
# Submitted via: cdrdao 1.2.3rc2
#
DISCID=99066e0d
DTITLE=Naktineica - Seju, veju, rallalā!
DYEAR=2013
DGENRE=country
TTITLE0=Laime brauce garu ceļu
TTITLE1=Celeņi, muni celeņi
TTITLE2=Syt kūceņu pret kūceņu
TTITLE3=Gonūs mani muote syuta
TTITLE4=Dyuce bite, kamaneite
TTITLE5=Kali, kali, kaļveit
TTITLE6=Kur tu augi, skaista meita
TTITLE7=Ceļa molys duobuļenis
TTITLE8=Bolta eju, bolta taku
TTITLE9=Tec, muoseņa, iydisneņa
TTITLE10=Zīdi, zīdi, purineņi
TTITLE11=Apdzīduošonuos dzīsmys
TTITLE12=Es cimdeņa naadeju
EXTD=Naktineica 2013
EXTD=
EXTD=Par godu entogrāfiskā ansambļa 60 gadu pastāvēšanas jubilejai ir apkopotas un
EXTD=ierakstītas 13 dziesmas no ansambļa plašā repertuāra. Tās iedziedājušas pašreizējās
EXTD=ansambļa dažādu vecuma dalībnieces, tādējādi nodrošinot muzikālā mantojuma
EXTD=pārmantošanu no paaudzes paaudzē.
EXTT0=
EXTT1=
EXTT2=
EXTT3=
EXTT4=
EXTT5=
EXTT6=
EXTT7=
EXTT8=
EXTT9=
EXTT10=
EXTT11=
EXTT12=
PLAYORDER=
